<svg xmlns="http://www.w3.org/2000/svg">
<defs>
<symbol id="icon-eye" viewBox="0 0 24 24">
<title>eye</title>
<path d="M12.015 7c4.751 0 8.063 3.012 9.504 4.636-1.401 1.837-4.713 5.364-9.504 5.364-4.42 0-7.93-3.536-9.478-5.407 1.493-1.647 4.817-4.593 9.478-4.593zm0-2c-7.569 0-12.015 6.551-12.015 6.551s4.835 7.449 12.015 7.449c7.733 0 11.985-7.449 11.985-7.449s-4.291-6.551-11.985-6.551zm-.015 3c-2.21 0-4 1.791-4 4s1.79 4 4 4c2.209 0 4-1.791 4-4s-1.791-4-4-4zm-.004 3.999c-.564.564-1.479.564-2.044 0s-.565-1.48 0-2.044c.564-.564 1.479-.564 2.044 0s.565 1.479 0 2.044z"/>
</symbol>
<symbol id="icon-heart" viewBox="0 0 24 24">
<title>heart</title>
<path d="M12 4.248c-3.148-5.402-12-3.825-12 2.944 0 4.661 5.571 9.427 12 15.808 6.43-6.381 12-11.147 12-15.808 0-6.792-8.875-8.306-12-2.944z"/></symbol>
</defs>
<symbol>
<symbol id="icon-thumbs_up" viewBox="0 0 24 24">
<title>thumbs up</title>
<path d="M5 22h-5v-12h5v12zm17.615-8.412c-.857-.115-.578-.734.031-.922.521-.16 1.354-.5 1.354-1.51 0-.672-.5-1.562-2.271-1.49-1.228.05-3.666-.198-4.979-.885.906-3.656.688-8.781-1.688-8.781-1.594 0-1.896 1.807-2.375 3.469-1.221 4.242-3.312 6.017-5.687 6.885v10.878c4.382.701 6.345 2.768 10.505 2.768 3.198 0 4.852-1.735 4.852-2.666 0-.335-.272-.573-.96-.626-.811-.062-.734-.812.031-.953 1.268-.234 1.826-.914 1.826-1.543 0-.529-.396-1.022-1.098-1.181-.837-.189-.664-.757.031-.812 1.133-.09 1.688-.764 1.688-1.41 0-.565-.424-1.109-1.26-1.221z"/>
</symbol>
<symbol id="icon-github" viewBox="0 0 32 32">
<title>github</title>
<path d="M16 0.396c-8.84 0-16 7.164-16 16 0 7.071 4.584 13.067 10.94 15.18 0.8 0.151 1.093-0.344 1.093-0.769 0-0.38-0.013-1.387-0.020-2.72-4.451 0.965-5.389-2.147-5.389-2.147-0.728-1.847-1.78-2.34-1.78-2.34-1.449-0.992 0.112-0.972 0.112-0.972 1.607 0.112 2.451 1.648 2.451 1.648 1.427 2.447 3.745 1.74 4.66 1.331 0.144-1.035 0.556-1.74 1.013-2.14-3.553-0.4-7.288-1.776-7.288-7.907 0-1.747 0.62-3.173 1.647-4.293-0.18-0.404-0.72-2.031 0.14-4.235 0 0 1.34-0.429 4.4 1.64 1.28-0.356 2.64-0.532 4-0.54 1.36 0.008 2.72 0.184 4 0.54 3.040-2.069 4.38-1.64 4.38-1.64 0.86 2.204 0.32 3.831 0.16 4.235 1.020 1.12 1.64 2.547 1.64 4.293 0 6.147-3.74 7.5-7.3 7.893 0.56 0.48 1.080 1.461 1.080 2.96 0 2.141-0.020 3.861-0.020 4.381 0 0.42 0.28 0.92 1.1 0.76 6.401-2.099 10.981-8.099 10.981-15.159 0-8.836-7.164-16-16-16z"></path>
</symbol>
<symbol id="icon-linkedin" viewBox="0 0 32 32">
<title>linkedin</title>
<path d="M29 0h-26c-1.65 0-3 1.35-3 3v26c0 1.65 1.35 3 3 3h26c1.65 0 3-1.35 3-3v-26c0-1.65-1.35-3-3-3zM12 26h-4v-14h4v14zM10 10c-1.106 0-2-0.894-2-2s0.894-2 2-2c1.106 0 2 0.894 2 2s-0.894 2-2 2zM26 26h-4v-8c0-1.106-0.894-2-2-2s-2 0.894-2 2v8h-4v-14h4v2.481c0.825-1.131 2.087-2.481 3.5-2.481 2.488 0 4.5 2.238 4.5 5v9z"></path>
</symbol>
</svg>