<svg xmlns="http://www.w3.org/2000/svg">
<defs>
<symbol id="icon-eye" viewBox="0 0 24 24">
<title>eye</title>
<path d="M12.015 7c4.751 0 8.063 3.012 9.504 4.636-1.401 1.837-4.713 5.364-9.504 5.364-4.42 0-7.93-3.536-9.478-5.407 1.493-1.647 4.817-4.593 9.478-4.593zm0-2c-7.569 0-12.015 6.551-12.015 6.551s4.835 7.449 12.015 7.449c7.733 0 11.985-7.449 11.985-7.449s-4.291-6.551-11.985-6.551zm-.015 3c-2.21 0-4 1.791-4 4s1.79 4 4 4c2.209 0 4-1.791 4-4s-1.791-4-4-4zm-.004 3.999c-.564.564-1.479.564-2.044 0s-.565-1.48 0-2.044c.564-.564 1.479-.564 2.044 0s.565 1.479 0 2.044z"/>
</symbol>
<symbol id="icon-heart" viewBox="0 0 24 24">
<title>heart</title>
<path d="M12 4.248c-3.148-5.402-12-3.825-12 2.944 0 4.661 5.571 9.427 12 15.808 6.43-6.381 12-11.147 12-15.808 0-6.792-8.875-8.306-12-2.944z"/></symbol>
</defs>
<symbol>
<symbol id="icon-thumbs_up" viewBox="0 0 24 24">
<title>thumbs up</title>
<path d="M5 22h-5v-12h5v12zm17.615-8.412c-.857-.115-.578-.734.031-.922.521-.16 1.354-.5 1.354-1.51 0-.672-.5-1.562-2.271-1.49-1.228.05-3.666-.198-4.979-.885.906-3.656.688-8.781-1.688-8.781-1.594 0-1.896 1.807-2.375 3.469-1.221 4.242-3.312 6.017-5.687 6.885v10.878c4.382.701 6.345 2.768 10.505 2.768 3.198 0 4.852-1.735 4.852-2.666 0-.335-.272-.573-.96-.626-.811-.062-.734-.812.031-.953 1.268-.234 1.826-.914 1.826-1.543 0-.529-.396-1.022-1.098-1.181-.837-.189-.664-.757.031-.812 1.133-.09 1.688-.764 1.688-1.41 0-.565-.424-1.109-1.26-1.221z"/>
</symbol>
</svg>